<?xml version="1.0" standalone="no"?>
<!DOCTYPE svg PUBLIC "-//W3C//DTD SVG 20010904//EN"
 "http://www.w3.org/TR/2001/REC-SVG-20010904/DTD/svg10.dtd">
<svg version="1.0" xmlns="http://www.w3.org/2000/svg"
 width="700.000000pt" height="700.000000pt" viewBox="0 0 700.000000 700.000000"
 preserveAspectRatio="xMidYMid meet">
<metadata>
Created by potrace 1.11, written by Peter Selinger 2001-2013
</metadata>
<g transform="translate(0.000000,700.000000) scale(0.100000,-0.100000)"
fill="#000000" stroke="none">
<path d="M6313 6203 c-81 -41 -242 -123 -358 -183 -115 -59 -318 -163 -450
-230 -132 -67 -330 -169 -440 -225 -110 -56 -303 -155 -430 -220 -126 -65
-320 -164 -430 -220 -110 -56 -326 -167 -480 -245 -154 -78 -352 -180 -440
-225 -189 -97 -509 -261 -870 -445 -246 -126 -406 -207 -870 -445 -110 -56
-299 -153 -420 -215 -594 -303 -634 -325 -644 -347 -7 -15 -7 -32 -1 -47 10
-26 30 -33 655 -231 116 -37 266 -85 335 -107 69 -22 258 -82 420 -133 162
-52 367 -116 454 -144 87 -28 169 -51 181 -51 19 0 60 30 141 105 24 22 195
177 299 271 61 54 112 101 115 104 3 3 46 41 95 85 50 44 92 82 95 85 7 7 93
85 205 185 49 44 99 89 111 100 12 11 57 52 100 90 43 39 85 77 94 85 9 8 54
49 100 90 47 41 90 80 95 86 6 5 50 46 99 90 50 43 97 86 106 94 24 22 172
156 196 177 12 10 61 55 110 99 49 45 114 103 144 129 30 27 57 51 60 54 3 4
48 44 100 90 52 47 102 91 111 100 9 9 47 44 85 77 38 34 83 74 99 89 42 39
123 112 170 154 21 20 33 27 25 16 -16 -20 -130 -156 -555 -660 -236 -280
-255 -301 -291 -344 -33 -38 -250 -295 -314 -371 -150 -179 -224 -266 -229
-270 -3 -3 -19 -22 -34 -43 -16 -21 -36 -45 -46 -55 -10 -9 -76 -87 -147 -172
-71 -85 -131 -157 -134 -160 -12 -11 -386 -456 -407 -483 -38 -51 -12 -97 65
-117 26 -7 65 -18 87 -25 39 -13 77 -25 260 -80 50 -15 146 -44 215 -65 69
-21 179 -55 245 -75 66 -20 170 -51 230 -70 61 -19 274 -84 475 -145 361 -110
564 -172 628 -192 43 -13 75 -4 90 24 9 18 81 300 97 378 2 8 8 35 15 60 7 25
13 52 15 60 2 8 20 83 40 165 20 83 38 159 41 170 2 11 17 74 33 140 53 214
142 579 147 600 2 11 10 47 18 80 15 58 84 344 91 375 2 8 28 116 59 240 30
124 66 272 80 330 14 58 48 200 76 315 44 179 92 381 105 435 7 31 132 543
139 570 6 24 47 193 51 210 2 8 12 51 24 95 11 44 22 91 25 105 2 14 16 73 30
132 14 59 26 115 26 123 0 18 -32 48 -54 51 -8 1 -82 -32 -163 -73z"/>
<path d="M3122 1972 c-21 -21 -21 -28 -19 -622 2 -589 2 -602 22 -616 50 -37
74 -13 226 228 199 316 366 581 394 623 68 104 85 135 85 159 0 31 -20 51 -62
64 -71 22 -300 93 -426 132 -176 55 -195 57 -220 32z"/>
</g>
</svg>
